<svg id="svg" version="1.1" xmlns="http://www.w3.org/2000/svg" xmlns:xlink="http://www.w3.org/1999/xlink" width="400" height="400" viewBox="0, 0, 400,400"><g id="svgg"><path id="path0" d="M172.800 140.592 L 172.800 233.985 173.700 234.202 C 174.195 234.322,189.990 234.371,208.800 234.310 L 243.000 234.200 242.969 219.128 C 242.937 203.162,242.698 200.385,240.721 193.000 C 233.441 165.804,210.194 145.156,182.863 141.611 C 177.928 140.971,176.890 140.241,180.300 139.808 C 190.956 138.456,202.980 131.326,209.860 122.279 C 229.515 96.434,217.915 59.174,187.172 49.409 C 183.027 48.093,178.155 47.201,175.100 47.201 L 172.800 47.200 172.800 140.592 " stroke="none" fill="#649cfb" fill-rule="evenodd"></path><path id="path1" d="M165.583 47.807 C 126.658 54.382,112.775 103.482,142.613 129.045 C 149.204 134.692,158.746 138.986,166.551 139.819 C 169.949 140.182,168.816 141.106,164.374 141.595 C 160.621 142.008,157.755 142.515,155.500 143.167 C 154.675 143.405,153.415 143.759,152.700 143.953 C 148.476 145.098,139.854 148.962,136.556 151.188 C 135.568 151.854,134.680 152.400,134.582 152.400 C 133.888 152.400,127.055 158.089,123.565 161.572 C 116.982 168.144,111.979 175.440,108.598 183.400 C 107.356 186.324,107.257 186.585,106.480 189.000 C 103.448 198.416,103.113 201.590,103.270 219.400 L 103.400 234.200 138.600 234.270 C 157.960 234.308,173.575 234.248,173.300 234.136 C 172.902 233.975,172.800 214.885,172.800 140.567 L 172.800 47.200 170.700 47.249 C 169.545 47.276,167.242 47.527,165.583 47.807 M178.400 140.357 C 178.400 140.775,179.380 141.201,180.333 141.198 C 180.745 141.196,180.561 140.966,179.854 140.598 C 178.517 139.900,178.400 139.881,178.400 140.357 M222.200 161.200 C 223.506 162.520,224.665 163.600,224.775 163.600 C 224.885 163.600,223.906 162.520,222.600 161.200 C 221.294 159.880,220.135 158.800,220.025 158.800 C 219.915 158.800,220.894 159.880,222.200 161.200 M242.914 208.200 C 242.917 209.300,242.995 209.703,243.087 209.095 C 243.179 208.486,243.177 207.586,243.082 207.095 C 242.987 206.603,242.911 207.100,242.914 208.200 " stroke="none" fill="#84d4fb" fill-rule="evenodd"></path><path id="path2" d="M154.700 0.297 C 153.215 0.374,152.000 0.608,152.000 0.818 C 152.000 1.028,150.830 1.200,149.400 1.200 C 147.590 1.200,146.798 1.352,146.794 1.700 C 146.789 2.068,146.697 2.057,146.444 1.657 C 146.204 1.279,146.017 1.249,145.826 1.557 C 145.676 1.801,144.753 2.000,143.776 2.000 C 142.799 2.000,142.000 2.180,142.000 2.400 C 142.000 2.620,141.226 2.800,140.280 2.800 C 139.334 2.800,138.389 2.971,138.179 3.181 C 137.970 3.390,137.124 3.607,136.299 3.663 C 135.475 3.718,134.800 3.907,134.800 4.082 C 134.800 4.257,134.258 4.400,133.595 4.400 C 132.932 4.400,132.032 4.580,131.595 4.800 C 131.158 5.020,130.442 5.380,130.005 5.600 C 129.568 5.820,128.679 6.000,128.029 6.000 C 127.379 6.000,126.736 6.180,126.600 6.400 C 126.464 6.620,126.003 6.800,125.576 6.800 C 125.149 6.800,124.800 6.980,124.800 7.200 C 124.800 7.420,124.260 7.600,123.600 7.600 C 122.940 7.600,122.400 7.780,122.400 8.000 C 122.400 8.220,121.860 8.400,121.200 8.400 C 120.540 8.400,120.000 8.592,120.000 8.827 C 120.000 9.064,119.663 9.147,119.242 9.013 C 118.825 8.881,118.236 9.004,117.933 9.286 C 117.346 9.832,116.857 10.009,115.104 10.305 C 114.501 10.406,114.107 10.649,114.228 10.845 C 114.348 11.040,114.032 11.204,113.524 11.209 C 113.016 11.214,112.150 11.570,111.600 12.000 C 111.050 12.430,110.279 12.786,109.886 12.791 C 109.493 12.796,108.728 13.091,108.186 13.446 C 107.644 13.801,107.200 13.974,107.200 13.830 C 107.200 13.687,106.806 13.936,106.325 14.384 C 105.540 15.116,104.780 15.386,103.900 15.247 C 103.735 15.221,103.600 15.380,103.600 15.600 C 103.600 15.820,103.280 16.000,102.888 16.000 C 102.497 16.000,101.917 16.360,101.600 16.800 C 101.283 17.240,100.641 17.600,100.174 17.600 C 99.706 17.600,98.998 17.960,98.600 18.400 C 98.202 18.840,97.544 19.200,97.138 19.200 C 96.732 19.200,96.400 19.380,96.400 19.600 C 96.400 19.820,96.040 20.000,95.600 20.000 C 95.160 20.000,94.800 20.180,94.800 20.400 C 94.800 20.620,94.530 20.800,94.200 20.800 C 93.870 20.800,93.600 20.980,93.600 21.200 C 93.600 21.420,93.330 21.600,93.000 21.600 C 92.670 21.600,92.400 21.780,92.400 22.000 C 92.400 22.220,92.119 22.400,91.776 22.400 C 91.433 22.400,91.264 22.580,91.400 22.800 C 91.536 23.020,91.367 23.200,91.024 23.200 C 90.681 23.200,90.400 23.380,90.400 23.600 C 90.400 23.820,90.040 24.000,89.600 24.000 C 89.160 24.000,88.800 24.158,88.800 24.351 C 88.800 24.545,88.252 24.930,87.583 25.207 C 86.913 25.485,85.815 26.226,85.142 26.854 C 84.469 27.483,83.729 27.880,83.498 27.737 C 83.251 27.584,83.195 27.668,83.362 27.938 C 83.528 28.208,83.401 28.400,83.057 28.400 C 82.732 28.400,82.407 28.566,82.333 28.770 C 82.260 28.973,81.930 29.198,81.600 29.270 C 81.270 29.341,80.366 30.075,79.591 30.900 C 78.816 31.725,77.961 32.400,77.691 32.400 C 77.421 32.400,77.200 32.580,77.200 32.800 C 77.200 33.020,77.007 33.200,76.771 33.200 C 76.258 33.200,75.517 33.907,74.886 35.000 C 74.632 35.440,74.419 35.576,74.412 35.303 C 74.405 35.030,72.936 36.256,71.147 38.029 C 69.358 39.801,67.468 41.530,66.947 41.872 C 66.426 42.213,66.000 42.741,66.000 43.046 C 66.000 43.522,65.622 43.723,64.800 43.686 C 64.690 43.681,64.368 43.929,64.084 44.238 C 63.801 44.547,63.662 44.800,63.777 44.800 C 63.891 44.800,62.953 45.867,61.693 47.172 C 57.351 51.665,55.200 54.083,55.200 54.472 C 55.200 54.687,54.480 55.576,53.600 56.447 C 52.720 57.318,52.000 58.189,52.000 58.382 C 52.000 58.574,51.471 59.232,50.824 59.843 C 50.177 60.453,49.738 61.100,49.849 61.279 C 49.960 61.459,49.769 61.714,49.425 61.846 C 49.081 61.978,48.800 62.265,48.800 62.485 C 48.800 62.921,46.394 66.117,45.903 66.333 C 45.736 66.407,45.600 66.700,45.600 66.984 C 45.600 67.269,45.326 67.730,44.990 68.008 C 44.655 68.286,44.472 68.605,44.583 68.716 C 44.694 68.828,44.412 69.243,43.956 69.638 C 43.500 70.034,43.232 70.528,43.361 70.737 C 43.490 70.945,43.315 71.224,42.972 71.355 C 42.630 71.487,42.461 71.776,42.598 71.997 C 42.735 72.219,42.657 72.400,42.424 72.400 C 42.191 72.400,42.000 72.636,42.000 72.925 C 42.000 73.213,41.640 73.836,41.200 74.308 C 40.760 74.780,40.400 75.334,40.400 75.538 C 40.400 76.229,39.323 77.990,39.061 77.727 C 38.917 77.584,38.800 77.750,38.800 78.096 C 38.800 78.812,37.155 82.131,36.700 82.333 C 36.535 82.407,36.396 82.677,36.391 82.933 C 36.386 83.190,36.030 83.850,35.600 84.400 C 35.170 84.950,34.814 85.690,34.809 86.044 C 34.799 86.781,32.353 91.732,31.900 91.933 C 31.735 92.007,31.600 92.502,31.600 93.033 C 31.600 93.565,31.401 94.000,31.157 94.000 C 30.914 94.000,30.813 94.257,30.933 94.571 C 31.054 94.885,30.893 95.357,30.576 95.620 C 30.259 95.883,30.000 96.616,30.000 97.249 C 30.000 97.882,29.843 98.400,29.652 98.400 C 29.343 98.400,28.108 102.043,28.328 102.304 C 28.377 102.361,28.150 102.924,27.824 103.553 C 27.498 104.183,27.345 104.811,27.483 104.949 C 27.621 105.087,27.541 105.200,27.307 105.200 C 27.072 105.200,26.916 105.728,26.961 106.374 C 27.006 107.019,26.853 107.514,26.621 107.474 C 26.389 107.433,26.189 107.760,26.176 108.200 C 26.163 108.640,25.944 109.493,25.688 110.095 C 25.433 110.697,25.108 112.047,24.967 113.095 C 24.826 114.143,24.506 115.132,24.255 115.294 C 23.949 115.492,23.996 115.592,24.400 115.600 C 24.797 115.608,24.848 115.712,24.552 115.906 C 24.135 116.179,23.925 117.044,23.343 120.900 C 23.218 121.725,22.971 122.400,22.794 122.400 C 22.493 122.400,22.339 123.512,21.759 129.900 C 21.634 131.275,21.367 132.400,21.166 132.400 C 20.965 132.400,20.800 134.189,20.800 136.376 C 20.800 138.663,20.626 140.461,20.390 140.606 C 20.123 140.771,19.991 144.985,20.012 152.640 C 20.032 159.917,20.189 164.330,20.422 164.186 C 20.650 164.046,20.800 165.555,20.800 167.976 C 20.800 170.392,20.960 172.000,21.200 172.000 C 21.429 172.000,21.600 173.200,21.600 174.800 C 21.600 176.400,21.771 177.600,22.000 177.600 C 22.220 177.600,22.400 178.500,22.400 179.600 C 22.400 180.700,22.580 181.600,22.800 181.600 C 23.020 181.600,23.200 182.500,23.200 183.600 C 23.200 184.700,23.380 185.600,23.600 185.600 C 23.820 185.600,24.000 186.219,24.000 186.976 C 24.000 187.733,24.180 188.464,24.400 188.600 C 24.620 188.736,24.800 189.467,24.800 190.224 C 24.800 190.981,24.963 191.600,25.163 191.600 C 25.362 191.600,25.434 191.950,25.322 192.377 C 25.210 192.805,25.404 193.726,25.753 194.426 C 26.102 195.125,26.301 195.837,26.196 196.007 C 26.090 196.177,26.264 196.818,26.582 197.430 C 26.899 198.042,27.055 198.711,26.928 198.916 C 26.801 199.121,26.918 199.426,27.188 199.592 C 27.457 199.759,27.706 200.369,27.739 200.947 C 27.773 201.526,27.896 202.000,28.013 202.000 C 28.130 202.000,28.484 202.855,28.800 203.900 C 29.116 204.945,29.405 205.890,29.441 206.000 C 29.478 206.110,29.639 206.605,29.800 207.100 C 29.962 207.595,30.252 208.000,30.447 208.000 C 30.641 208.000,30.800 208.362,30.800 208.805 C 30.800 209.248,30.957 209.923,31.150 210.305 C 32.730 213.442,33.200 214.588,33.200 215.304 C 33.200 215.760,33.317 216.016,33.461 215.873 C 33.760 215.573,34.800 217.416,34.800 218.246 C 34.800 218.551,34.980 218.800,35.200 218.800 C 35.420 218.800,35.600 219.250,35.600 219.800 C 35.600 220.350,35.780 220.800,36.000 220.800 C 36.220 220.800,36.400 221.171,36.400 221.624 C 36.400 222.077,36.580 222.336,36.800 222.200 C 37.020 222.064,37.200 222.236,37.200 222.582 C 37.200 223.209,37.972 224.820,38.454 225.200 C 38.593 225.310,39.108 226.255,39.598 227.300 C 40.087 228.345,40.648 229.200,40.844 229.200 C 41.040 229.200,41.200 229.520,41.200 229.912 C 41.200 230.303,41.560 230.883,42.000 231.200 C 42.440 231.517,42.800 232.086,42.800 232.465 C 42.800 232.843,42.983 233.266,43.207 233.404 C 43.430 233.542,43.521 233.805,43.408 233.987 C 43.295 234.170,43.649 234.742,44.195 235.259 C 44.740 235.777,45.189 236.425,45.193 236.700 C 45.197 236.975,45.391 237.200,45.624 237.200 C 45.857 237.200,45.936 237.380,45.800 237.600 C 45.664 237.820,45.753 238.000,45.997 238.000 C 46.242 238.000,46.633 238.549,46.867 239.220 C 47.101 239.892,47.391 240.342,47.511 240.222 C 47.724 240.009,50.400 243.716,50.400 244.224 C 50.400 244.364,50.940 244.983,51.600 245.600 C 52.260 246.217,52.800 247.009,52.800 247.360 C 52.800 247.712,53.025 248.001,53.300 248.001 C 53.575 248.002,54.160 248.541,54.600 249.200 C 55.040 249.859,55.535 250.398,55.700 250.399 C 55.865 250.399,56.000 250.676,56.000 251.013 C 56.000 251.350,56.405 251.789,56.900 251.988 C 57.395 252.187,57.547 252.361,57.239 252.375 C 56.597 252.404,58.256 254.000,58.928 254.000 C 59.151 254.000,59.224 254.109,59.090 254.243 C 58.957 254.377,60.637 256.258,62.824 258.423 L 66.800 262.361 66.800 331.181 L 66.800 400.000 119.800 400.000 L 172.800 400.000 172.800 317.200 L 172.800 234.400 137.600 234.400 L 102.400 234.400 102.408 220.500 C 102.418 202.279,103.566 193.828,107.176 185.400 C 115.454 166.074,127.424 154.036,146.949 145.401 C 150.637 143.770,160.470 141.200,163.023 141.200 C 163.696 141.200,164.596 140.936,165.024 140.613 C 165.760 140.055,165.737 140.025,164.560 140.013 C 163.878 140.006,162.798 139.841,162.160 139.647 C 161.522 139.452,160.190 139.061,159.200 138.777 C 158.210 138.493,157.229 138.112,157.020 137.930 C 156.811 137.749,156.395 137.600,156.095 137.600 C 155.346 137.600,150.632 135.314,148.200 133.771 C 130.869 122.778,122.474 102.387,127.214 82.800 C 127.453 81.810,127.749 80.503,127.871 79.895 C 127.993 79.287,128.251 78.692,128.446 78.571 C 128.641 78.451,128.800 78.076,128.800 77.737 C 128.800 75.496,134.803 65.668,138.714 61.506 C 144.233 55.632,153.770 49.887,160.600 48.323 C 164.968 47.322,166.058 47.148,169.300 46.934 L 172.800 46.702 172.800 23.351 L 172.800 0.000 165.100 0.078 C 160.865 0.121,156.185 0.220,154.700 0.297 M193.600 0.800 C 193.600 1.020,194.095 1.197,194.700 1.194 C 195.557 1.189,195.668 1.102,195.200 0.800 C 194.417 0.294,193.600 0.294,193.600 0.800 M258.953 25.932 C 259.368 26.399,259.875 26.677,260.080 26.551 C 260.518 26.280,260.502 26.263,259.200 25.596 C 258.203 25.085,258.202 25.086,258.953 25.932 M264.400 29.517 C 264.400 29.933,265.264 30.800,265.680 30.800 C 266.269 30.800,266.008 30.198,265.200 29.693 C 264.760 29.418,264.400 29.339,264.400 29.517 M312.800 91.000 C 312.800 91.330,312.980 91.600,313.200 91.600 C 313.420 91.600,313.600 91.330,313.600 91.000 C 313.600 90.670,313.420 90.400,313.200 90.400 C 312.980 90.400,312.800 90.670,312.800 91.000 M317.600 103.353 C 317.600 103.683,317.780 104.064,318.000 104.200 C 318.220 104.336,318.400 104.177,318.400 103.847 C 318.400 103.517,318.220 103.136,318.000 103.000 C 317.780 102.864,317.600 103.023,317.600 103.353 M324.406 135.276 C 324.418 136.281,325.187 137.108,325.194 136.124 C 325.197 135.642,325.020 135.136,324.800 135.000 C 324.580 134.864,324.403 134.988,324.406 135.276 M330.957 159.833 C 331.091 160.181,331.200 160.541,331.200 160.633 C 331.200 160.725,331.363 160.800,331.563 160.800 C 331.762 160.800,331.831 160.440,331.716 160.000 C 331.601 159.560,331.328 159.200,331.111 159.200 C 330.893 159.200,330.824 159.485,330.957 159.833 M338.402 174.024 C 338.401 174.366,338.664 174.996,338.987 175.424 C 339.751 176.434,339.759 175.996,339.002 174.546 C 338.674 173.916,338.404 173.681,338.402 174.024 M340.251 178.589 C 340.367 178.891,340.709 179.233,341.011 179.349 C 341.357 179.482,341.482 179.357,341.349 179.011 C 341.233 178.709,340.891 178.367,340.589 178.251 C 340.243 178.118,340.118 178.243,340.251 178.589 " stroke="none" fill="#fce4e4" fill-rule="evenodd"></path><path id="path3" d="M172.800 23.320 L 172.800 46.747 176.700 46.925 C 178.845 47.023,181.410 47.295,182.400 47.530 C 183.390 47.765,184.740 48.070,185.400 48.209 C 186.060 48.347,186.960 48.609,187.400 48.791 C 187.840 48.973,189.280 49.533,190.600 50.035 C 198.908 53.194,206.722 59.533,212.266 67.609 C 229.195 92.271,217.911 127.006,189.400 137.992 C 188.960 138.162,188.097 138.503,187.481 138.750 C 186.866 138.998,185.931 139.200,185.405 139.200 C 184.878 139.200,184.336 139.380,184.200 139.600 C 184.064 139.820,183.198 140.005,182.276 140.012 C 180.037 140.028,181.281 140.834,184.200 141.258 C 185.300 141.417,187.059 141.673,188.109 141.827 C 189.159 141.981,190.115 142.262,190.233 142.453 C 190.351 142.644,190.830 142.800,191.297 142.800 C 192.074 142.800,195.702 143.913,197.900 144.826 C 198.395 145.032,199.205 145.361,199.700 145.558 C 212.060 150.468,224.613 160.867,232.105 172.400 C 234.816 176.574,236.757 180.352,238.887 185.600 C 239.111 186.150,239.452 186.913,239.647 187.295 C 239.841 187.677,240.000 188.341,240.000 188.771 C 240.000 189.201,240.180 189.664,240.400 189.800 C 240.620 189.936,240.800 190.566,240.800 191.200 C 240.800 191.834,240.980 192.464,241.200 192.600 C 241.420 192.736,241.600 193.431,241.600 194.144 C 241.600 194.857,241.763 195.611,241.961 195.820 C 242.917 196.826,243.522 206.294,243.562 220.898 L 243.600 234.396 208.300 234.498 L 173.000 234.600 172.899 317.300 L 172.798 400.000 202.599 400.000 L 232.400 400.000 232.400 376.800 L 232.400 353.600 279.200 353.600 L 326.000 353.600 326.000 306.000 L 326.000 258.400 352.500 258.394 C 367.075 258.391,379.180 258.256,379.400 258.094 C 379.961 257.682,380.185 255.838,379.633 256.180 C 379.379 256.336,379.200 256.126,379.200 255.673 C 379.200 255.247,378.941 254.683,378.624 254.420 C 378.307 254.157,378.157 253.655,378.292 253.305 C 378.454 252.883,378.378 252.766,378.068 252.958 C 377.811 253.117,377.578 253.057,377.550 252.824 C 377.403 251.581,376.743 250.278,375.867 249.500 C 375.433 249.115,375.268 248.800,375.501 248.800 C 375.789 248.800,375.776 248.480,375.462 247.803 C 375.208 247.255,374.871 246.805,374.713 246.803 C 374.554 246.801,374.525 246.541,374.646 246.224 C 374.771 245.898,374.506 245.423,374.033 245.128 C 373.575 244.842,373.200 244.195,373.200 243.691 C 373.200 243.187,372.941 242.676,372.625 242.554 C 372.309 242.433,372.148 242.079,372.268 241.767 C 372.388 241.455,372.256 241.200,371.976 241.200 C 371.696 241.200,371.584 241.083,371.727 240.940 C 371.870 240.796,371.675 240.423,371.294 240.110 C 370.912 239.797,370.808 239.644,371.063 239.771 C 371.412 239.945,371.413 239.763,371.067 239.031 C 370.761 238.382,370.511 238.216,370.311 238.530 C 370.144 238.793,370.010 238.427,370.006 237.700 C 370.003 236.985,369.820 236.400,369.600 236.400 C 369.380 236.400,369.200 236.130,369.200 235.800 C 369.200 235.470,369.020 235.200,368.800 235.200 C 368.580 235.200,368.400 235.009,368.400 234.776 C 368.400 234.543,368.593 234.472,368.830 234.618 C 369.066 234.764,369.022 234.505,368.733 234.042 C 368.444 233.579,368.060 233.200,367.880 233.200 C 367.700 233.200,367.665 233.019,367.802 232.797 C 367.939 232.576,367.769 232.286,367.425 232.154 C 367.065 232.016,366.800 231.442,366.800 230.800 C 366.800 230.158,366.535 229.584,366.175 229.446 C 365.831 229.314,365.660 229.027,365.795 228.808 C 365.930 228.589,365.672 228.014,365.220 227.530 C 364.769 227.045,364.400 226.402,364.400 226.101 C 364.400 225.799,364.220 225.664,364.000 225.800 C 363.780 225.936,363.578 225.677,363.550 225.224 C 363.470 223.901,363.417 223.684,363.100 223.367 C 362.935 223.202,362.800 222.726,362.800 222.310 C 362.800 221.893,362.620 221.664,362.400 221.800 C 362.174 221.940,362.000 221.613,362.000 221.051 C 362.000 220.405,361.718 219.964,361.200 219.800 C 360.645 219.624,360.400 219.195,360.400 218.397 C 360.400 217.764,360.220 217.136,360.000 217.000 C 359.780 216.864,359.600 216.403,359.600 215.976 C 359.600 215.549,359.456 215.200,359.280 215.200 C 359.105 215.200,358.733 214.570,358.454 213.800 C 358.176 213.030,357.769 212.400,357.551 212.400 C 357.332 212.400,357.255 212.235,357.380 212.032 C 357.505 211.830,357.344 211.401,357.023 211.080 C 356.701 210.758,356.550 210.384,356.686 210.248 C 356.822 210.111,356.693 210.000,356.400 210.000 C 356.107 210.000,355.979 209.888,356.116 209.750 C 356.253 209.613,356.021 208.826,355.600 208.000 C 355.179 207.174,354.962 206.358,355.117 206.185 C 355.273 206.013,355.211 205.979,354.980 206.110 C 354.749 206.241,354.343 206.000,354.077 205.574 C 353.695 204.963,353.699 204.799,354.097 204.794 C 354.408 204.790,354.447 204.675,354.200 204.494 C 353.635 204.079,352.000 200.842,352.000 200.139 C 352.000 199.816,351.820 199.664,351.600 199.800 C 351.373 199.940,351.200 199.604,351.200 199.024 C 351.200 198.461,351.025 198.000,350.810 198.000 C 350.308 198.000,349.152 195.781,349.483 195.451 C 349.621 195.313,349.523 195.200,349.267 195.200 C 349.010 195.200,348.797 194.795,348.794 194.300 C 348.789 193.572,348.714 193.515,348.400 194.000 C 348.106 194.455,348.011 194.286,348.006 193.300 C 348.003 192.585,347.820 192.000,347.600 192.000 C 347.380 192.000,347.200 191.752,347.200 191.449 C 347.200 191.146,346.926 190.670,346.590 190.392 C 346.255 190.114,346.066 189.800,346.171 189.695 C 346.276 189.591,346.108 189.251,345.798 188.941 C 345.488 188.631,345.336 188.112,345.460 187.788 C 345.584 187.465,345.486 187.200,345.243 187.200 C 344.999 187.200,344.800 186.840,344.800 186.400 C 344.800 185.960,344.665 185.599,344.500 185.597 C 344.141 185.593,343.200 183.656,343.200 182.920 C 343.200 182.634,343.020 182.400,342.800 182.400 C 342.580 182.400,342.400 182.145,342.400 181.833 C 342.400 181.522,342.210 181.203,341.978 181.126 C 341.746 181.049,341.514 180.699,341.463 180.349 C 341.412 179.999,341.061 179.404,340.685 179.028 C 339.931 178.274,339.772 177.812,340.400 178.200 C 340.620 178.336,340.800 178.276,340.800 178.066 C 340.800 177.857,340.528 177.581,340.196 177.454 C 339.864 177.327,339.634 177.082,339.685 176.911 C 339.736 176.740,339.448 176.106,339.045 175.503 C 338.642 174.900,338.405 174.163,338.520 173.865 C 338.634 173.568,338.388 173.079,337.973 172.780 C 337.415 172.378,337.346 172.155,337.709 171.924 C 338.021 171.726,337.835 171.608,337.200 171.600 C 336.650 171.593,336.380 171.456,336.600 171.294 C 337.151 170.889,337.288 170.000,336.800 170.000 C 336.580 170.000,336.400 169.752,336.400 169.449 C 336.400 169.146,336.141 168.683,335.824 168.420 C 335.507 168.157,335.346 167.685,335.467 167.371 C 335.587 167.057,335.486 166.800,335.243 166.800 C 334.999 166.800,334.800 166.429,334.800 165.976 C 334.800 165.523,334.665 165.235,334.500 165.334 C 334.042 165.612,333.413 164.716,333.289 163.610 C 333.227 163.065,332.920 162.475,332.605 162.299 C 332.291 162.123,332.135 161.714,332.259 161.389 C 332.400 161.023,332.246 160.800,331.850 160.800 C 331.482 160.800,331.115 160.338,330.977 159.700 C 330.682 158.342,329.958 156.768,329.317 156.088 C 329.051 155.807,328.936 155.312,329.060 154.988 C 329.184 154.665,329.086 154.400,328.843 154.400 C 328.599 154.400,328.400 154.040,328.400 153.600 C 328.400 153.160,328.220 152.800,328.000 152.800 C 327.780 152.800,327.600 152.440,327.600 152.000 C 327.600 151.560,327.420 151.200,327.200 151.200 C 326.980 151.200,326.800 150.855,326.800 150.433 C 326.800 150.012,326.622 149.607,326.404 149.533 C 326.186 149.460,325.975 148.410,325.934 147.200 C 325.893 145.990,325.689 144.775,325.481 144.500 C 325.223 144.159,325.277 143.998,325.651 143.994 C 326.044 143.989,326.067 143.903,325.732 143.690 C 325.459 143.517,325.194 141.977,325.097 139.996 C 325.005 138.128,324.782 136.167,324.602 135.637 C 324.366 134.946,324.404 134.756,324.737 134.961 C 324.992 135.118,325.200 135.067,325.200 134.847 C 325.200 134.627,325.044 134.351,324.853 134.233 C 324.662 134.114,324.587 132.909,324.688 131.553 C 324.832 129.606,324.758 129.131,324.335 129.293 C 323.917 129.453,323.812 128.897,323.855 126.753 C 323.886 125.241,323.751 124.107,323.555 124.228 C 323.360 124.348,323.200 123.907,323.200 123.247 C 323.200 122.587,323.001 121.924,322.757 121.774 C 322.449 121.583,322.479 121.394,322.857 121.150 C 323.276 120.880,323.288 120.728,322.913 120.484 C 322.645 120.311,322.382 119.591,322.328 118.884 C 322.274 118.178,322.043 117.597,321.815 117.594 C 321.587 117.591,321.644 117.433,321.943 117.244 C 322.321 117.004,322.351 116.817,322.043 116.626 C 321.799 116.476,321.600 115.928,321.600 115.410 C 321.600 114.891,321.375 114.375,321.100 114.264 C 320.724 114.111,320.748 113.956,321.200 113.637 C 321.607 113.349,321.639 113.210,321.300 113.206 C 321.025 113.203,320.800 112.829,320.800 112.376 C 320.800 111.923,320.620 111.664,320.400 111.800 C 320.180 111.936,320.000 111.756,320.000 111.400 C 320.000 111.044,320.184 110.867,320.410 111.006 C 320.635 111.145,320.455 110.611,320.010 109.818 C 319.070 108.143,319.011 107.846,319.700 108.235 C 320.100 108.461,320.100 108.410,319.700 107.979 C 319.425 107.682,319.187 106.891,319.172 106.220 C 319.148 105.176,319.094 105.116,318.800 105.800 C 318.493 106.514,318.453 106.485,318.428 105.524 C 318.413 104.932,318.220 104.336,318.000 104.200 C 317.780 104.064,317.600 103.258,317.600 102.410 C 317.600 101.561,317.412 100.804,317.182 100.727 C 316.952 100.651,316.735 100.198,316.699 99.722 C 316.663 99.245,316.491 98.944,316.317 99.051 C 316.143 99.159,316.000 98.607,316.000 97.824 C 316.000 97.041,315.820 96.400,315.600 96.400 C 315.380 96.400,315.200 95.990,315.200 95.488 C 315.200 94.987,314.840 94.317,314.400 94.000 C 313.960 93.683,313.600 93.013,313.600 92.512 C 313.600 92.010,313.420 91.600,313.200 91.600 C 312.980 91.600,312.800 91.060,312.800 90.400 C 312.800 89.740,312.620 89.200,312.400 89.200 C 312.180 89.200,312.000 88.739,312.000 88.176 C 312.000 87.596,311.827 87.260,311.600 87.400 C 311.380 87.536,311.200 87.391,311.200 87.078 C 311.200 86.764,310.840 86.050,310.400 85.491 C 309.960 84.931,309.600 84.097,309.600 83.637 C 309.600 83.177,309.420 82.800,309.200 82.800 C 308.980 82.800,308.800 82.369,308.800 81.843 C 308.800 81.316,308.533 80.783,308.207 80.658 C 307.839 80.517,307.713 80.171,307.875 79.750 C 308.052 79.289,307.985 79.162,307.668 79.358 C 307.354 79.552,307.198 79.279,307.194 78.524 C 307.189 77.651,307.101 77.534,306.800 78.000 C 306.587 78.330,306.389 78.420,306.360 78.200 C 306.331 77.980,306.283 77.583,306.254 77.319 C 306.224 77.054,305.840 76.565,305.400 76.231 C 304.960 75.898,304.819 75.620,305.087 75.613 C 305.356 75.606,305.472 75.331,305.346 75.002 C 305.219 74.674,304.955 74.504,304.758 74.626 C 304.433 74.827,304.232 74.266,304.353 73.500 C 304.379 73.335,304.220 73.200,304.000 73.200 C 303.780 73.200,303.600 72.975,303.600 72.700 C 303.599 72.425,303.153 71.682,302.608 71.048 C 302.063 70.414,301.702 69.758,301.806 69.590 C 301.910 69.421,301.708 69.173,301.356 69.039 C 301.005 68.904,300.809 68.553,300.922 68.259 C 301.035 67.965,300.784 67.476,300.364 67.174 C 299.944 66.871,299.600 66.380,299.600 66.083 C 299.600 65.246,298.513 64.286,298.264 64.904 C 298.153 65.177,298.049 64.995,298.032 64.500 C 298.014 64.005,297.820 63.600,297.600 63.600 C 297.380 63.600,297.245 63.445,297.300 63.255 C 297.388 62.952,295.077 59.936,293.700 58.558 C 293.425 58.282,293.200 57.858,293.200 57.616 C 293.200 57.373,292.795 57.011,292.300 56.812 C 291.805 56.613,291.622 56.439,291.893 56.425 C 292.164 56.411,291.770 55.766,291.017 54.990 C 290.264 54.215,289.535 53.225,289.397 52.790 C 289.259 52.356,288.878 52.000,288.549 52.000 C 288.221 52.000,288.064 51.820,288.200 51.600 C 288.336 51.380,288.227 51.200,287.957 51.200 C 287.687 51.200,287.579 51.088,287.715 50.951 C 288.074 50.592,284.803 47.551,284.355 47.828 C 284.149 47.955,284.006 47.911,284.037 47.730 C 284.184 46.886,283.937 46.434,283.200 46.200 C 282.760 46.060,282.400 45.728,282.400 45.461 C 282.400 45.195,282.021 44.712,281.558 44.388 C 281.095 44.065,280.123 43.215,279.398 42.500 C 278.673 41.785,277.922 41.200,277.729 41.200 C 277.362 41.200,276.000 39.756,276.000 39.367 C 276.000 38.968,274.870 38.000,274.405 38.000 C 274.156 38.000,274.051 37.840,274.172 37.645 C 274.376 37.315,273.244 36.080,272.939 36.300 C 272.570 36.566,271.981 36.355,272.182 36.029 C 272.308 35.825,272.049 35.543,271.606 35.402 C 271.163 35.261,270.800 35.023,270.800 34.873 C 270.799 34.321,268.889 32.400,268.342 32.400 C 268.031 32.400,267.517 32.040,267.200 31.600 C 266.883 31.160,266.305 30.800,265.915 30.800 C 265.526 30.800,264.982 30.440,264.707 30.000 C 264.432 29.560,263.970 29.200,263.680 29.200 C 263.390 29.200,263.264 29.020,263.400 28.800 C 263.536 28.580,263.359 28.400,263.006 28.400 C 262.654 28.400,261.890 27.960,261.310 27.421 C 260.729 26.883,260.122 26.525,259.959 26.625 C 259.797 26.726,259.287 26.328,258.826 25.743 C 258.366 25.157,257.882 24.784,257.752 24.914 C 257.622 25.044,257.109 24.712,256.612 24.175 C 256.115 23.639,255.313 23.200,254.831 23.200 C 254.348 23.200,254.035 23.065,254.134 22.900 C 254.234 22.735,254.065 22.368,253.758 22.084 C 253.348 21.705,253.200 21.695,253.200 22.045 C 253.200 22.308,252.867 22.138,252.459 21.668 C 252.052 21.199,251.628 20.906,251.516 21.017 C 251.405 21.128,251.086 20.945,250.808 20.610 C 250.530 20.274,250.004 20.000,249.639 20.000 C 249.275 20.000,248.717 19.640,248.400 19.200 C 248.083 18.760,247.432 18.400,246.954 18.400 C 246.477 18.400,245.975 18.111,245.839 17.758 C 245.696 17.384,245.339 17.215,244.981 17.352 C 244.635 17.485,244.271 17.329,244.142 16.993 C 244.017 16.667,243.686 16.400,243.406 16.400 C 243.127 16.400,242.670 16.126,242.392 15.790 C 242.114 15.455,241.791 15.275,241.675 15.391 C 241.560 15.507,241.104 15.286,240.664 14.901 C 240.223 14.515,239.984 14.408,240.132 14.663 C 240.335 15.012,240.164 15.013,239.435 14.669 C 238.903 14.418,238.572 14.045,238.700 13.839 C 238.830 13.628,238.633 13.578,238.250 13.725 C 237.829 13.887,237.483 13.761,237.342 13.393 C 237.217 13.067,236.756 12.800,236.319 12.800 C 235.881 12.800,235.046 12.471,234.462 12.070 C 232.850 10.962,230.898 10.281,230.003 10.515 C 229.469 10.655,229.200 10.529,229.200 10.139 C 229.200 9.817,229.035 9.655,228.834 9.779 C 228.633 9.903,228.402 9.806,228.321 9.563 C 228.240 9.320,227.639 9.070,226.987 9.009 C 226.334 8.948,225.290 8.694,224.666 8.446 C 224.043 8.198,223.368 8.096,223.166 8.221 C 222.965 8.345,222.800 8.257,222.800 8.024 C 222.800 7.791,222.530 7.600,222.200 7.600 C 221.870 7.600,221.600 7.420,221.600 7.200 C 221.600 6.980,220.835 6.797,219.900 6.794 C 218.655 6.789,218.361 6.684,218.800 6.400 C 219.255 6.106,219.084 6.011,218.094 6.006 C 216.562 5.999,213.600 5.140,213.600 4.703 C 213.600 4.536,213.060 4.400,212.400 4.400 C 211.740 4.400,211.200 4.212,211.200 3.982 C 211.200 3.753,210.975 3.594,210.700 3.630 C 209.226 3.821,207.181 3.555,207.400 3.200 C 207.549 2.958,207.004 2.800,206.024 2.800 C 205.027 2.800,204.400 2.614,204.400 2.320 C 204.400 1.947,204.293 1.947,203.920 2.320 C 203.375 2.865,202.645 2.975,202.960 2.465 C 203.074 2.281,202.418 2.101,201.503 2.065 C 200.588 2.029,199.660 1.820,199.440 1.600 C 199.220 1.380,197.816 1.200,196.320 1.200 C 194.824 1.200,193.600 1.039,193.600 0.842 C 193.600 0.646,193.195 0.475,192.700 0.463 C 192.205 0.451,187.525 0.317,182.300 0.167 L 172.800 -0.108 172.800 23.320 M42.006 231.900 C 42.024 232.777,42.788 233.359,42.794 232.500 C 42.797 232.005,42.620 231.600,42.400 231.600 C 42.180 231.600,42.003 231.735,42.006 231.900 " stroke="none" fill="#fccccc" fill-rule="evenodd"></path><path id="path4" d="M166.752 46.981 C 166.653 47.081,165.588 47.341,164.386 47.560 C 156.344 49.026,150.010 51.974,143.200 57.419 C 137.165 62.245,128.800 74.048,128.800 77.737 C 128.800 78.076,128.641 78.451,128.446 78.571 C 128.251 78.692,127.993 79.287,127.871 79.895 C 127.749 80.503,127.453 81.810,127.214 82.800 C 122.474 102.387,130.869 122.778,148.200 133.771 C 150.632 135.314,155.346 137.600,156.095 137.600 C 156.395 137.600,156.811 137.749,157.020 137.930 C 157.229 138.112,158.210 138.493,159.200 138.777 C 160.190 139.061,161.522 139.452,162.160 139.647 C 162.798 139.841,163.878 140.006,164.560 140.013 C 165.737 140.025,165.760 140.055,165.024 140.613 C 164.596 140.936,163.696 141.200,163.023 141.200 C 161.829 141.200,158.107 141.943,155.100 142.782 C 148.367 144.660,148.387 144.652,142.000 147.718 C 126.397 155.209,114.674 167.894,107.176 185.400 C 105.456 189.417,103.869 195.851,102.983 202.400 C 102.217 208.072,102.148 234.400,102.900 234.400 C 103.293 234.400,103.372 231.224,103.268 219.500 C 103.108 201.594,103.440 198.441,106.480 189.000 C 107.257 186.585,107.356 186.324,108.598 183.400 C 111.979 175.440,116.982 168.144,123.565 161.572 C 127.055 158.089,133.888 152.400,134.582 152.400 C 134.680 152.400,135.568 151.854,136.556 151.188 C 139.803 148.996,148.409 145.127,152.600 143.975 C 153.260 143.794,154.520 143.440,155.400 143.189 C 157.781 142.511,160.600 142.010,164.374 141.595 C 168.816 141.106,169.949 140.182,166.551 139.819 C 158.746 138.986,149.204 134.692,142.613 129.045 C 121.167 110.672,121.167 76.901,142.612 58.557 C 151.932 50.585,162.910 46.860,175.890 47.264 C 178.794 47.354,180.952 47.290,180.685 47.120 C 180.177 46.798,167.067 46.667,166.752 46.981 M181.633 47.747 C 181.725 47.828,182.520 48.014,183.400 48.162 C 184.546 48.354,184.830 48.314,184.400 48.021 C 183.860 47.653,181.232 47.393,181.633 47.747 M185.233 48.544 C 185.705 48.950,187.643 49.193,187.410 48.816 C 187.268 48.587,186.683 48.400,186.110 48.400 C 185.536 48.400,185.142 48.465,185.233 48.544 M188.400 49.600 C 188.730 49.813,189.270 49.988,189.600 49.988 C 190.133 49.988,190.133 49.945,189.600 49.600 C 189.270 49.387,188.730 49.212,188.400 49.212 C 187.867 49.212,187.867 49.255,188.400 49.600 M193.800 51.915 C 204.036 57.287,210.029 63.461,215.433 74.200 C 216.429 76.180,217.121 77.350,216.970 76.800 C 216.557 75.298,213.663 69.645,212.266 67.609 C 207.484 60.643,200.774 54.768,193.731 51.380 C 189.562 49.374,189.605 49.713,193.800 51.915 M217.212 78.400 C 217.212 78.730,217.387 79.270,217.600 79.600 C 217.945 80.133,217.988 80.133,217.988 79.600 C 217.988 79.270,217.813 78.730,217.600 78.400 C 217.255 77.867,217.212 77.867,217.212 78.400 M218.034 81.000 C 218.022 81.440,218.187 82.070,218.400 82.400 C 218.914 83.195,218.914 82.196,218.400 81.000 L 218.056 80.200 218.034 81.000 M219.050 85.600 C 219.375 87.841,219.602 88.160,219.594 86.367 C 219.591 85.615,219.408 84.730,219.188 84.400 C 218.909 83.981,218.867 84.342,219.050 85.600 M219.687 93.600 C 219.683 96.659,219.804 98.212,220.000 97.600 C 220.404 96.338,220.404 91.388,220.000 89.800 C 219.811 89.057,219.692 90.504,219.687 93.600 M219.264 100.450 C 219.229 100.808,219.098 101.708,218.973 102.450 C 218.788 103.555,218.829 103.671,219.198 103.091 C 219.446 102.702,219.577 101.802,219.489 101.091 C 219.400 100.381,219.299 100.093,219.264 100.450 M218.200 105.600 C 218.048 106.291,218.014 106.947,218.124 107.057 C 218.234 107.167,218.448 106.691,218.600 106.000 C 218.752 105.309,218.786 104.653,218.676 104.543 C 218.566 104.433,218.352 104.909,218.200 105.600 M217.400 108.400 C 217.250 108.873,217.217 109.350,217.327 109.460 C 217.437 109.570,217.650 109.273,217.800 108.800 C 217.950 108.327,217.983 107.850,217.873 107.740 C 217.763 107.630,217.550 107.927,217.400 108.400 M216.564 110.643 C 216.048 112.178,213.870 116.634,213.103 117.723 C 212.669 118.341,212.406 118.939,212.520 119.053 C 212.758 119.291,215.148 115.123,216.412 112.267 C 216.882 111.203,217.166 110.233,217.043 110.110 C 216.920 109.986,216.704 110.226,216.564 110.643 M210.660 121.406 C 209.457 123.310,204.603 128.477,202.639 129.944 C 202.000 130.421,201.581 130.914,201.707 131.040 C 202.045 131.378,208.219 125.364,210.160 122.806 C 212.253 120.048,212.528 119.600,212.124 119.601 C 211.946 119.601,211.287 120.413,210.660 121.406 M199.087 132.568 C 196.600 134.290,196.179 134.784,198.200 133.609 C 199.651 132.766,201.652 131.168,201.189 131.222 C 201.085 131.234,200.139 131.840,199.087 132.568 M194.800 135.200 C 194.030 135.622,193.544 135.974,193.720 135.983 C 194.144 136.005,196.400 134.832,196.400 134.590 C 196.400 134.328,196.377 134.337,194.800 135.200 M186.800 138.417 C 185.590 138.821,184.960 139.159,185.400 139.170 C 186.274 139.190,189.020 138.313,189.459 137.874 C 189.861 137.472,189.262 137.595,186.800 138.417 M182.400 139.600 L 181.000 139.895 182.476 139.947 C 183.288 139.976,184.064 139.820,184.200 139.600 C 184.468 139.166,184.461 139.166,182.400 139.600 M179.420 140.345 C 180.068 140.934,182.452 141.600,183.913 141.600 C 184.680 141.600,186.048 141.794,186.954 142.032 C 187.859 142.269,189.275 142.629,190.100 142.832 C 193.032 143.552,195.031 144.179,197.345 145.105 C 198.635 145.621,199.786 145.948,199.902 145.831 C 200.019 145.714,199.774 145.508,199.357 145.373 C 198.941 145.238,198.240 144.976,197.800 144.790 C 195.772 143.934,192.065 142.800,191.297 142.800 C 190.830 142.800,190.351 142.644,190.233 142.453 C 190.115 142.262,189.159 141.981,188.109 141.827 C 187.059 141.673,185.300 141.416,184.200 141.254 C 183.100 141.092,181.807 140.744,181.326 140.480 C 180.315 139.925,178.842 139.820,179.420 140.345 M202.540 147.246 C 203.827 147.910,204.961 148.372,205.061 148.273 C 205.279 148.054,201.217 145.992,200.621 146.019 C 200.390 146.030,201.253 146.582,202.540 147.246 M205.600 148.590 C 205.600 148.694,206.185 149.065,206.900 149.414 L 208.200 150.048 207.200 149.233 C 206.237 148.448,205.600 148.192,205.600 148.590 M209.000 150.643 C 209.956 151.382,212.000 152.485,212.000 152.263 C 212.000 152.023,208.859 149.998,208.509 150.013 C 208.339 150.020,208.560 150.303,209.000 150.643 M212.400 152.700 C 212.400 152.880,212.960 153.359,213.645 153.763 C 215.975 155.139,221.932 160.404,224.670 163.507 C 226.172 165.208,227.496 166.690,227.612 166.800 C 228.366 167.510,231.911 172.593,233.242 174.872 C 234.118 176.373,234.934 177.600,235.056 177.600 C 235.591 177.600,230.917 170.307,228.262 167.000 C 224.268 162.025,212.400 151.326,212.400 152.700 M235.219 178.300 C 235.246 178.736,237.559 183.054,237.581 182.712 C 237.609 182.293,235.611 178.000,235.388 178.000 C 235.285 178.000,235.208 178.135,235.219 178.300 M238.403 185.276 C 238.422 186.156,240.776 191.931,240.786 191.124 C 240.794 190.532,240.620 189.936,240.400 189.800 C 240.180 189.664,240.000 189.124,240.000 188.600 C 240.000 188.076,239.820 187.536,239.600 187.400 C 239.380 187.264,239.200 186.814,239.200 186.400 C 239.200 185.986,239.020 185.536,238.800 185.400 C 238.580 185.264,238.401 185.208,238.403 185.276 M241.063 193.680 C 241.400 195.449,241.600 195.601,241.600 194.090 C 241.600 193.407,241.423 192.738,241.206 192.604 C 240.960 192.452,240.906 192.855,241.063 193.680 M241.838 197.035 C 241.953 197.896,242.259 199.410,242.519 200.400 C 242.844 201.638,242.992 207.224,242.996 218.299 C 242.998 227.154,243.135 234.399,243.300 234.399 C 243.715 234.400,243.606 208.225,243.172 203.800 C 242.593 197.896,242.341 196.220,241.976 195.835 C 241.779 195.627,241.719 196.145,241.838 197.035 " stroke="none" fill="#b9d4ef" fill-rule="evenodd"></path></g></svg>